<svg t="1617459572692" class="icon" viewBox="0 0 1024 1024" version="1.1" xmlns="http://www.w3.org/2000/svg" p-id="9011" width="200" height="200"><path d="M281 749.9h614.3v55.8H281z" p-id="9012" fill="#1296db"></path><path d="M895.2 116.1c-0.2-28.3-23.1-51.2-51.4-51.4h-665c-28.3 0.2-51.2 23.1-51.4 51.4v651.1c-0.1 1.3-0.1 2.6 0 3.9-0.3 5.1-0.3 10.2 0 15.4 0.2 94.8 76.9 171.6 171.7 171.7h568.2c15.4 0 27.9-12.5 27.9-27.9 0-15.4-12.5-27.9-27.9-27.9H299.1c-64 0-115.9-51.9-115.9-115.9s51.9-115.9 115.9-115.9h568.2c15.4 0 27.9-12.5 27.9-27.9V116.1z m-712 544.2V120.6h98.3v495.3c-36.6 3.8-71.1 19.4-98.3 44.4z m656.2-45.5H336.8V120.6h502.6v494.2z m0 0" p-id="9013" fill="#1296db"></path></svg>