<svg t="1617458764188" class="icon" viewBox="0 0 1024 1024" version="1.1" xmlns="http://www.w3.org/2000/svg" p-id="3379" width="200" height="200"><path d="M512 0C229.12 0 0 229.12 0 512s229.12 512 512 512 512-229.12 512-512-229.12-512-512-512z m0 981.44a468.672 468.672 0 0 1-359.68-168.128c43.84-18.944 153.152-58.368 222.336-78.528 5.376-1.728 6.4-1.984 6.4-26.368 0-26.048-2.944-44.544-9.344-58.048a295.04 295.04 0 0 1-22.656-77.824c-10.368-12.032-24.32-35.712-33.472-80.96-7.872-39.872-4.224-54.4 0.96-67.968 0.512-1.472 1.28-2.944 1.472-4.416 1.984-9.088-0.704-57.856-7.616-95.488-4.672-25.856 1.28-80.768 36.928-126.272 22.4-28.8 65.472-64 142.72-68.928h43.136c78.528 4.928 121.6 40.128 144 68.928 35.648 45.504 41.6 100.416 36.672 126.272-6.912 37.632-9.6 86.144-7.68 95.488 0.256 1.472 1.024 2.944 1.536 4.16 5.12 13.568 9.088 28.096 0.96 67.968-9.088 45.312-23.104 68.928-33.472 80.96-3.712 28.096-14.08 59.072-22.656 77.824-8.128 16.96-16.256 37.12-16.256 57.344 0 24.32 1.024 24.576 6.656 26.304 65.728 19.456 178.944 58.624 228.928 79.04A468.48 468.48 0 0 1 512 981.44z" fill="#8F9CBE" p-id="3380"></path></svg>