<svg t="1617458943465" class="icon" viewBox="0 0 1024 1024" version="1.1" xmlns="http://www.w3.org/2000/svg" p-id="4130" width="200" height="200"><path d="M484.266667 938.666667H170.666667c-36.266667 0-64-29.866667-64-68.266667V153.6C106.666667 115.2 136.533333 85.333333 170.666667 85.333333h313.6c23.466667 0 42.666667 19.2 42.666666 42.666667s-19.2 42.666667-42.666666 42.666667H192v682.666666h292.266667c23.466667 0 42.666667 19.2 42.666666 42.666667s-19.2 42.666667-42.666666 42.666667z" p-id="4131"></path><path d="M708.266667 672v-78.933333c0-12.8-10.666667-23.466667-23.466667-23.466667H384c-12.8 0-23.466667-10.666667-23.466667-23.466667v-68.266666c0-12.8 10.666667-23.466667 23.466667-23.466667h302.933333c12.8 0 23.466667-10.666667 23.466667-23.466667v-78.933333c0-21.333333 25.6-29.866667 40.533333-17.066667l162.133334 160c8.533333 8.533333 8.533333 23.466667 0 32l-162.133334 160c-17.066667 14.933333-42.666667 4.266667-42.666666-14.933333z" p-id="4132"></path><path d="M731.733333 716.8c-6.4 0-10.666667-2.133333-17.066666-4.266667-17.066667-6.4-27.733333-23.466667-27.733334-40.533333v-78.933333s0-2.133333-2.133333-2.133334H384c-25.6 0-44.8-19.2-44.8-44.8v-68.266666c0-23.466667 19.2-44.8 44.8-44.8h302.933333c2.133333 0 2.133333 0 2.133334-2.133334v-78.933333c0-17.066667 10.666667-34.133333 27.733333-40.533333 17.066667-6.4 36.266667-4.266667 49.066667 8.533333l162.133333 160c8.533333 8.533333 12.8 19.2 12.8 32s-4.266667 23.466667-12.8 32L763.733333 704c-8.533333 6.4-19.2 12.8-32 12.8zM384 475.733333c-2.133333 0-2.133333 2.133333 0 0l-2.133333 70.4s0 2.133333 2.133333 2.133334h302.933333c23.466667 0 44.8 19.2 44.8 44.8v78.933333l2.133334 2.133333h2.133333L896 512l-162.133333-162.133333h-2.133334l-2.133333 81.066666c0 23.466667-19.2 44.8-44.8 44.8H384z" p-id="4133"></path></svg>