<svg t="1617459192425" class="icon" viewBox="0 0 1024 1024" version="1.1" xmlns="http://www.w3.org/2000/svg" p-id="4871" width="200" height="200"><path d="M512 496c-124.8 0-224-99.2-224-224S387.2 48 512 48s224 99.2 224 224-99.2 224-224 224z m0-384c-89.6 0-160 70.4-160 160s70.4 160 160 160 160-70.4 160-160-70.4-160-160-160z m368 864H144c-44.8 0-80-35.2-80-80 0-156.8 150.4-384 384-384h128c233.6 0 384 227.2 384 384 0 44.8-35.2 80-80 80zM448 576c-192 0-320 192-320 320 0 9.6 6.4 16 16 16h736c9.6 0 16-6.4 16-16 0-128-128-320-320-320H448z" p-id="4872" fill="#1296db"></path></svg>