<svg t="1617459291612" class="icon" viewBox="0 0 1024 1024" version="1.1" xmlns="http://www.w3.org/2000/svg" p-id="5745" width="200" height="200"><path d="M488.384 586.464h-156.096C149.056 586.464 0 731.552 0 909.888 0 955.136 37.856 992 84.352 992H736.32c46.464 0 84.32-36.864 84.32-82.112 0-178.336-149.056-323.424-332.288-323.424z m247.968 343.008H84.48a20.16 20.16 0 0 1-20.128-19.584c0-143.776 120.224-260.8 267.936-260.8h156.224c147.712 0 267.936 117.024 267.936 260.8a20.16 20.16 0 0 1-20.096 19.584zM678.016 99.456c88.416 20.16 150.176 96.128 150.176 184.704 0 88.192-64 166.08-152.256 185.184a31.232 31.232 0 0 0-24.416 37.312 31.936 31.936 0 0 0 31.328 24.48c2.336 0 4.672-0.224 6.88-0.704 117.504-25.44 202.72-129.024 202.72-246.272 0-117.76-82.24-218.816-199.872-245.568a32.128 32.128 0 0 0-38.592 23.296 31.36 31.36 0 0 0 24.032 37.568z m112.32 501.536c-16.896-5.056-35.008 3.968-40.32 20.512a31.2 31.2 0 0 0 21.12 39.264c110.944 33.728 188.48 136.192 188.48 249.024a20.16 20.16 0 0 1-20.064 19.52h-57.088c-17.76 0-32.192 14.08-32.192 31.36s14.4 31.328 32.192 31.328h57.184C986.144 992 1024 955.136 1024 909.76c0-139.904-96.064-266.88-233.632-308.768z m-381.856-64.576c142.912 0 259.2-113.056 259.2-252.16 0-139.072-116.288-252.256-259.2-252.256C265.6 32 149.312 145.056 149.312 284.16c0 139.072 116.288 252.256 259.2 252.256z m0-441.888c107.52 0 194.816 85.12 194.816 189.632s-87.392 189.6-194.816 189.6c-107.392 0-194.784-85.088-194.784-189.6 0-104.544 87.392-189.632 194.784-189.632z" fill="#1296db" p-id="5746"></path></svg>