<svg t="1617459531916" class="icon" viewBox="0 0 1148 1024" version="1.1" xmlns="http://www.w3.org/2000/svg" p-id="8254" width="200" height="200"><path d="M837.818182 186.181818v186.181818a155.151515 155.151515 0 0 0 0 310.303031v49.648485a170.666667 170.666667 0 0 0-229.624243 229.624242H155.151515V186.181818h682.666667z" fill="#0C5ABB" opacity=".2" p-id="8255"></path><path d="M1148.121212 980.929939a27.492848 27.492848 0 0 1-27.306667 25.941334 27.492848 27.492848 0 0 1-27.368727-25.941334 249.359515 249.359515 0 0 0-71.990303-175.538424 244.922182 244.922182 0 0 0-173.924848-72.797091c-127.162182-4.995879-235.364848 92.656485-244.580849 220.718546 0.713697 14.615273-4.654545 28.858182-14.770424 39.346424a51.820606 51.820606 0 0 1-38.663758 15.825454H109.319758C48.934788 1008.484848 0 959.053576 0 898.141091V125.827879C0 64.946424 48.965818 15.515152 109.319758 15.515152H765.517576c60.353939 0 109.319758 49.431273 109.319757 110.312727v223.418182a190.277818 190.277818 0 0 1 159.309576 146.680242 192.077576 192.077576 0 0 1-79.747879 202.162424c116.487758 44.590545 193.56703 157.137455 193.629091 282.841212H1148.121212zM820.130909 125.734788a55.016727 55.016727 0 0 0-54.737454-55.171879H109.319758a55.016727 55.016727 0 0 0-54.644364 55.233939v772.251152c0 30.440727 24.482909 55.171879 54.768485 55.171879h439.978666c10.146909-114.967273 84.340364-214.016 191.146667-255.224243a192.077576 192.077576 0 0 1-79.747879-202.193454 190.277818 190.277818 0 0 1 159.340606-146.649212V125.672727z m163.995152 413.66497c0-76.179394-61.191758-137.929697-136.688485-137.929697-75.527758 0-136.719515 61.750303-136.719515 137.929697s61.191758 137.929697 136.719515 137.929697c75.496727 0 136.688485-61.750303 136.688485-137.929697z m-300.683637-248.118303H191.363879a27.337697 27.337697 0 0 1-23.707152-13.808485 27.834182 27.834182 0 0 1 0-27.61697 27.337697 27.337697 0 0 1 23.707152-13.839515h492.078545c9.774545 0 18.804364 5.275152 23.707152 13.808485a27.834182 27.834182 0 0 1 0 27.616969 27.337697 27.337697 0 0 1-23.707152 13.839516zM191.363879 456.828121h218.670545a27.306667 27.306667 0 0 1 25.103515 13.28097c5.275152 8.781576 5.275152 19.828364 0 28.609939a27.306667 27.306667 0 0 1-25.134545 13.28097H191.394909a27.492848 27.492848 0 0 1-27.368727-27.61697c0-15.266909 12.25697-27.648 27.368727-27.648v0.093091z" fill="#0C5ABB" p-id="8256"></path></svg>