<svg t="1617459618849" class="icon" viewBox="0 0 1024 1024" version="1.1" xmlns="http://www.w3.org/2000/svg" p-id="9797" width="200" height="200"><path d="M512 307.844637c-113.358831 0-205.675733 92.073643-205.675733 205.310845 0 113.237202 92.316902 205.310845 205.675733 205.310845 113.358831 0 205.675733-92.073643 205.675733-205.310845C717.675733 399.91828 625.358831 307.844637 512 307.844637L512 307.844637zM512 650.718613c-76.01853 0-137.80639-61.787861-137.80639-137.684761 0-75.8969 61.787861-137.684761 137.80639-137.684761 76.01853 0 137.92802 61.787861 137.92802 137.684761C649.80639 589.052382 588.01853 650.718613 512 650.718613L512 650.718613zM938.190284 367.929683l-40.989191 0c-5.716593 0-10.825039-3.40563-13.014372-8.635705-2.189334-5.230075-0.973037-11.311557 3.040741-15.325336l29.069486-28.947856c26.393633-26.272004 26.393633-69.450529 0-95.722532l-109.831571-109.709942c-13.136002-13.136002-30.529041-19.704003-47.922081-19.704003-17.39304 0-34.786079 6.568001-47.922081 19.704003l-29.069486 28.947856c-2.675852 2.675852-6.324742 4.135408-9.973631 4.135408-1.824445 0-3.648889-0.364889-5.351704-1.094667-5.230075-2.189334-8.635705-7.297779-8.635705-13.014372L657.590688 87.573346c0-37.218672-30.529041-71.883122-67.869343-71.883122L434.278655 15.690224c-37.340302 0-67.869343 34.664449-67.869343 71.883122l0 40.989191c0 5.716593-3.40563 10.825039-8.635705 13.014372-1.702815 0.729778-3.52726 1.094667-5.351704 1.094667-3.648889 0-7.297779-1.459556-9.973631-4.135408l-29.069486-28.947856c-13.136002-13.136002-30.529041-19.704003-47.922081-19.704003-17.39304 0-34.786079 6.568001-47.922081 19.704003l-109.831571 109.709942c-26.393633 26.272004-26.393633 69.450529 0 95.722532l29.069486 28.947856c4.013778 4.013778 5.230075 10.095261 3.040741 15.325336-2.189334 5.230075-7.297779 8.635705-13.014372 8.635705l-40.989191 0c-37.340302 0-70.666825 30.407412-70.666825 67.747714l0 155.0778c0 37.218672 33.326523 67.747714 70.666825 67.747714l40.989191 0c5.716593 0 10.825039 3.40563 13.014372 8.635705 2.189334 5.230075 0.973037 11.311557-3.040741 15.325336l-29.069486 28.947856c-26.393633 26.272004-26.393633 69.450529 0 95.722532l109.831571 109.709942c13.257632 13.136002 30.529041 19.704003 47.922081 19.704003 17.39304 0 34.786079-6.568001 47.922081-19.704003l29.069486-28.947856c2.675852-2.675852 6.324742-4.135408 9.973631-4.135408 1.824445 0 3.648889 0.364889 5.351704 1.094667 5.230075 2.189334 8.635705 7.297779 8.635705 13.014372l0 40.989191c0 37.218672 30.529041 70.545195 67.869343 70.545195l155.32106 0c37.340302 0 67.869343-33.326523 67.869343-70.545195l0-40.989191c0-5.716593 3.40563-10.825039 8.635705-13.014372 1.702815-0.729778 3.52726-1.094667 5.351704-1.094667 3.648889 0 7.297779 1.459556 9.973631 4.135408l29.069486 28.947856c13.136002 13.136002 30.529041 19.704003 47.922081 19.704003 17.39304 0 34.786079-6.568001 47.922081-19.704003l109.831571-109.709942c26.393633-26.272004 26.393633-69.450529 0-95.722532L887.227462 682.342321c-4.013778-4.013778-5.230075-10.095261-3.040741-15.325336 2.189334-5.230075 7.297779-8.635705 13.014372-8.635705l40.989191 0c37.340302 0 70.666825-30.529041 70.666825-67.747714L1008.857109 435.555767C1008.857109 398.337095 975.530586 367.929683 938.190284 367.929683L938.190284 367.929683zM941.109395 590.633567l-43.908303 0c-33.204894 0-63.004157 19.825632-75.653641 50.476304-12.771113 30.650671-5.716593 65.68001 17.757928 89.154531l29.069486 28.947856-109.831571 109.709942-29.069486-28.947856c-15.446965-15.446965-36.002376-23.961041-57.895712-23.961041-10.825039 0-21.406818 2.067704-31.380449 6.203112-30.650671 12.771113-50.597933 42.327117-50.597933 75.532011l0 43.786673L434.278655 941.535099l0-43.786673c0-33.204894-19.825632-62.882528-50.597933-75.532011-9.973631-4.135408-20.55541-6.203112-31.380449-6.203112-21.893337 0-42.448747 8.514075-57.895712 23.961041l-29.069486 28.947856L155.746763 759.212258l29.069486-28.947856c23.474522-23.474522 30.529041-58.382231 17.757928-89.154531-12.771113-30.650671-42.448747-50.476304-75.653641-50.476304l-43.908303 0L83.012234 435.555767l43.908303 0c33.204894 0 62.882528-19.825632 75.653641-50.476304 12.771113-30.650671 5.716593-65.68001-17.757928-89.154531L155.746763 267.098705l109.831571-109.709942 29.069486 28.947856c15.446965 15.446965 36.002376 23.961041 57.895712 23.961041 10.825039 0 21.406818-2.067704 31.380449-6.203112 30.772301-12.649483 50.597933-42.327117 50.597933-75.532011L434.521915 83.437938l155.32106 0 0 45.246229c0 33.204894 19.825632 62.882528 50.597933 75.532011 9.973631 4.135408 20.55541 6.203112 31.380449 6.203112 21.893337 0 42.448747-8.514075 57.895712-23.961041l29.069486-28.947856 109.831571 109.709942-29.069486 28.947856c-23.474522 23.474522-30.407412 58.50386-17.757928 89.032902 12.771113 30.650671 42.448747 50.476304 75.653641 50.476304l43.908303 0L941.352655 590.633567 941.109395 590.633567zM941.109395 590.633567" p-id="9798" fill="#1296db"></path></svg>