<svg t="1617459657011" class="icon" viewBox="0 0 1024 1024" version="1.1" xmlns="http://www.w3.org/2000/svg" p-id="10592" width="200" height="200"><path d="M491.008 847.36L332.8 709.632a61.952 61.952 0 0 0-40.704-15.104H175.872A54.016 54.016 0 0 1 121.856 640v-230.4a53.76 53.76 0 0 1 54.016-54.016h108.544a61.952 61.952 0 0 0 40.448-15.104l166.4-143.36a44.288 44.288 0 0 1 73.216 33.536v583.168a44.544 44.544 0 0 1-73.472 33.536z m0 0" fill="#1296db" p-id="10593"></path><path d="M519.936 880.896a65.792 65.792 0 0 1-43.776-16.64l-158.208-137.472a38.144 38.144 0 0 0-25.6-9.728H175.872a76.8 76.8 0 0 1-76.8-76.8v-230.4a76.8 76.8 0 0 1 76.8-76.8h108.544a39.168 39.168 0 0 0 25.6-9.472l166.4-143.104a66.816 66.816 0 0 1 110.592 51.2v582.144a66.304 66.304 0 0 1-39.168 60.928 68.864 68.864 0 0 1-27.904 6.144zM175.872 379.392a31.488 31.488 0 0 0-31.488 31.488v230.4a31.744 31.744 0 0 0 31.488 31.744h116.224a83.456 83.456 0 0 1 55.552 20.736l158.208 137.472a21.504 21.504 0 0 0 23.296 3.584 22.016 22.016 0 0 0 12.544-19.968V232.192a21.76 21.76 0 0 0-35.84-16.64L339.456 358.4a85.248 85.248 0 0 1-55.04 20.48z m475.904 309.504a23.04 23.04 0 0 1-19.456-10.752 22.528 22.528 0 0 1 7.68-30.976 145.92 145.92 0 0 0 0-249.344 22.528 22.528 0 0 1 23.552-38.4 191.232 191.232 0 0 1 0 326.4 23.552 23.552 0 0 1-11.52 3.072z m0 0" fill="#1296db" p-id="10594"></path><path d="M747.776 793.6a22.528 22.528 0 0 1-13.312-40.704 287.488 287.488 0 0 0 116.224-230.4 284.16 284.16 0 0 0-113.408-228.096 22.528 22.528 0 1 1 27.392-35.84A329.216 329.216 0 0 1 896 522.24a332.8 332.8 0 0 1-134.4 266.752 22.528 22.528 0 0 1-13.568 4.352z m0 0" fill="#1296db" p-id="10595"></path></svg>